<?xml version="1.0" standalone="no"?>
<svg id="gradient-path" width="300" height="200" viewBox="0 0 100 100" xmlns="http://www.w3.org/2000/svg"><g class="gradient-path"><g class="element-path"><path class="path-segment" d="M24.3,35L23.74,35.01L23.25,35.03L22.85,35.08L22.44,35.13L21.04,25.23L21.91,25.12L22.79,25.05L23.58,25.01L24.3,25Z" fill="rgb(200, 253, 218)"></path><path class="path-segment" d="M22.44,35.13L21.89,35.22L21.49,35.31L21.04,35.42L20.68,35.52L17.8,25.95L18.68,25.7L19.47,25.51L20.33,25.34L21.04,25.23Z" fill="rgb(202, 252, 214)"></path><path class="path-segment" d="M20.68,35.52L20.19,35.68L19.75,35.84L19.35,36.02L19.01,36.17L14.69,27.15L15.51,26.78L16.31,26.46L17.07,26.18L17.8,25.95Z" fill="rgb(204, 250, 211)"></path><path class="path-segment" d="M19.01,36.17L18.55,36.41L18.1,36.65L17.67,36.9L17.43,37.06L11.81,28.8L12.65,28.26L13.32,27.87L14.01,27.49L14.69,27.15Z" fill="rgb(206, 249, 207)"></path><path class="path-segment" d="M17.43,37.06L17,37.37L16.53,37.72L16.2,37.98L15.91,38.24L9.28,30.75L9.96,30.18L10.63,29.64L11.2,29.23L11.81,28.8Z" fill="rgb(209, 247, 204)"></path><path class="path-segment" d="M15.91,38.24L15.5,38.62L15.16,38.95L14.78,39.34L14.53,39.63L7.04,33L7.64,32.34L8.16,31.81L8.74,31.24L9.28,30.75Z" fill="rgb(211, 245, 200)"></path><path class="path-segment" d="M14.53,39.63L14.16,40.05L13.86,40.42L13.54,40.85L13.28,41.21L5.1,35.45L5.6,34.77L6.06,34.18L6.56,33.55L7.04,33Z" fill="rgb(213, 244, 197)"></path><path class="path-segment" d="M13.28,41.21L12.97,41.67L12.68,42.12L12.42,42.55L12.21,42.92L3.46,38.08L3.88,37.33L4.28,36.68L4.69,36.05L5.1,35.45Z" fill="rgb(215, 242, 193)"></path><path class="path-segment" d="M12.21,42.92L11.94,43.42L11.67,43.94L11.48,44.35L11.29,44.78L2.11,40.81L2.44,40.07L2.79,39.34L3.12,38.7L3.46,38.08Z" fill="rgb(217, 241, 190)"></path><path class="path-segment" d="M11.29,44.78L11.05,45.34L10.89,45.78L10.74,46.23L10.59,46.7L1.04,43.72L1.28,42.97L1.55,42.2L1.85,41.44L2.11,40.81Z" fill="rgb(219, 239, 186)"></path><path class="path-segment" d="M10.59,46.7L10.43,47.24L10.31,47.69L10.21,48.15L10.14,48.52L0.28,46.88L0.45,45.99L0.63,45.19L0.83,44.4L1.04,43.72Z" fill="rgb(221, 237, 183)"></path><path class="path-segment" d="M10.14,48.52L10.07,49.04L10.02,49.51L10,49.92V50.13L0.01,50.37L0.02,49.3L0.08,48.43L0.17,47.62L0.28,46.88Z" fill="rgb(223, 236, 179)"></path><path class="path-segment" d="M10,50.13L10.03,50.58L10.08,51.06L10.14,51.47L10.21,51.83L0.4,53.77L0.24,52.87L0.12,52L0.05,51.2L0.01,50.37Z" fill="rgb(226, 234, 176)"></path><path class="path-segment" d="M10.21,51.83L10.32,52.35L10.44,52.8L10.59,53.32L10.71,53.69L1.23,56.88L0.95,56L0.76,55.3L0.56,54.51L0.4,53.77Z" fill="rgb(228, 233, 172)"></path><path class="path-segment" d="M10.71,53.69L10.9,54.23L11.09,54.76L11.27,55.16L11.45,55.59L2.35,59.73L2.03,59L1.71,58.2L1.46,57.53L1.23,56.88Z" fill="rgb(228, 233, 172)"></path><path class="path-segment" d="M11.45,55.59L11.68,56.07L11.96,56.65L12.14,56.96L12.41,57.45L3.75,62.44L3.4,61.8L2.96,60.99L2.68,60.41L2.35,59.73Z" fill="rgb(232, 229, 165)"></path><path class="path-segment" d="M12.41,57.45L12.7,57.92L12.96,58.31L13.26,58.75L13.53,59.13L5.46,65.03L4.98,64.37L4.56,63.75L4.12,63.06L3.75,62.44Z" fill="rgb(234, 228, 162)"></path><path class="path-segment" d="M13.53,59.13L13.88,59.6L14.18,59.98L14.52,60.38L14.77,60.64L7.47,67.48L6.86,66.8L6.38,66.22L5.88,65.6L5.46,65.03Z" fill="rgb(236, 226, 158)"></path><path class="path-segment" d="M14.77,60.64L15.18,61.07L15.56,61.44L15.87,61.72L16.19,62L9.77,69.66L9.11,69.1L8.48,68.52L7.96,67.99L7.47,67.48Z" fill="rgb(238, 225, 155)"></path><path class="path-segment" d="M16.19,62L16.65,62.37L16.98,62.61L17.41,62.92L17.72,63.13L12.38,71.58L11.61,71.06L11,70.63L10.31,70.11L9.77,69.66Z" fill="rgb(240, 223, 151)"></path><path class="path-segment" d="M17.72,63.13L18.17,63.39L18.58,63.62L19,63.82L19.34,63.98L15.28,73.12L14.46,72.74L13.74,72.36L13.03,71.97L12.38,71.58Z" fill="rgb(243, 221, 148)"></path><path class="path-segment" d="M19.34,63.98L19.85,64.2L20.22,64.33L20.74,64.5L21.02,64.57L18.45,74.23L17.48,73.96L16.78,73.71L15.95,73.4L15.28,73.12Z" fill="rgb(245, 220, 144)"></path><path class="path-segment" d="M21.02,64.57L21.6,64.72L21.99,64.79L22.47,64.87L22.84,64.91L21.66,74.84L20.75,74.73L19.97,74.59L19.1,74.4L18.45,74.23Z" fill="rgb(247, 218, 141)"></path><path class="path-segment" d="M22.84,64.91L23.43,64.98L23.75,64.99L24.32,65H24.62L25.01,74.98L24.02,75L23.29,74.97L22.33,74.92L21.66,74.84Z" fill="rgb(249, 217, 137)"></path><path class="path-segment" d="M24.62,65L25.14,64.96L25.62,64.91L25.94,64.85L26.29,64.78L28.41,74.56L27.5,74.73L26.56,74.87L25.76,74.94L25.01,74.98Z" fill="rgb(251, 215, 134)"></path><path class="path-segment" d="M26.29,64.78L26.79,64.66L27.2,64.54L27.64,64.39L28.01,64.25L31.59,73.59L30.76,73.89L29.98,74.14L29.15,74.38L28.41,74.56Z" fill="rgb(251, 211, 134)"></path><path class="path-segment" d="M28.01,64.25L28.54,64.04L28.87,63.88L29.39,63.63L29.73,63.44L34.51,72.22L33.73,72.63L33.09,72.94L32.26,73.32L31.59,73.59Z" fill="rgb(251, 207, 133)"></path><path class="path-segment" d="M29.73,63.44L30.26,63.15L30.66,62.9L31.05,62.64L31.46,62.36L37.13,70.6L36.49,71.04L35.8,71.48L35.1,71.89L34.51,72.22Z" fill="rgb(251, 204, 133)"></path><path class="path-segment" d="M31.46,62.36L31.97,62.01L32.4,61.69L32.77,61.4L33.23,61.04L39.48,68.84L38.93,69.28L38.3,69.77L37.69,70.21L37.13,70.6Z" fill="rgb(251, 204, 133)"></path><path class="path-segment" d="M33.23,61.04L33.69,60.67L34.09,60.32L34.53,59.94L34.92,59.58L41.68,66.95L41.11,67.46L40.59,67.92L40.01,68.41L39.48,68.84Z" fill="rgb(250, 200, 133)"></path><path class="path-segment" d="M34.92,59.58L35.35,59.18L35.77,58.78L36.19,58.37L36.59,57.96L43.7,65L43.19,65.51L42.69,66L42.19,66.48L41.68,66.95Z" fill="rgb(250, 196, 132)"></path><path class="path-segment" d="M36.59,57.96L37.05,57.49L37.43,57.1L37.87,56.64L38.25,56.23L45.59,63.03L45.09,63.56L44.65,64.02L44.13,64.57L43.7,65Z" fill="rgb(250, 189, 131)"></path><path class="path-segment" d="M38.25,56.23L38.66,55.78L39.06,55.34L39.49,54.86L39.87,54.43L47.39,61.01L46.93,61.54L46.5,62.02L46.04,62.54L45.59,63.03Z" fill="rgb(250, 185, 131)"></path><path class="path-segment" d="M39.87,54.43L40.29,53.95L40.67,53.5L41.05,53.05L41.48,52.54L49.12,59L48.71,59.47L48.27,60L47.81,60.53L47.39,61.01Z" fill="rgb(250, 181, 131)"></path><path class="path-segment" d="M41.48,52.54L41.88,52.07L42.29,51.58L42.66,51.12L43.06,50.63L50.8,56.95L50.4,57.46L49.95,58L49.54,58.49L49.12,59Z" fill="rgb(250, 181, 131)"></path><path class="path-segment" d="M43.06,50.63L43.51,50.09L43.88,49.63L44.25,49.18L44.65,48.68L52.45,54.92L52.05,55.42L51.62,55.97L51.17,56.51L50.8,56.95Z" fill="rgb(249, 177, 130)"></path><path class="path-segment" d="M44.65,48.68L45.05,48.18L45.49,47.63L45.86,47.18L46.26,46.68L54.06,52.92L53.66,53.42L53.23,53.97L52.85,54.42L52.45,54.92Z" fill="rgb(249, 170, 130)"></path><path class="path-segment" d="M46.26,46.68L46.66,46.18L47.06,45.68L47.46,45.18L47.88,44.66L55.66,50.95L55.26,51.42L54.86,51.92L54.46,52.42L54.06,52.92Z" fill="rgb(249, 166, 129)"></path><path class="path-segment" d="M47.88,44.66L48.27,44.18L48.7,43.65L49.11,43.14L49.52,42.64L57.26,48.97L56.85,49.48L56.44,49.97L56.07,50.42L55.66,50.95Z" fill="rgb(249, 162, 129)"></path><path class="path-segment" d="M49.52,42.64L49.92,42.16L50.33,41.65L50.82,41.08L51.2,40.63L58.86,47.05L58.42,47.58L58.07,47.99L57.66,48.48L57.26,48.97Z" fill="rgb(249, 159, 129)"></path><path class="path-segment" d="M51.2,40.63L51.61,40.14L52.1,39.58L52.48,39.13L52.97,38.59L60.45,45.22L60.08,45.63L59.62,46.16L59.27,46.56L58.86,47.05Z" fill="rgb(248, 155, 128)"></path><path class="path-segment" d="M52.97,38.59L53.37,38.13L53.84,37.6L54.3,37.09L54.78,36.58L62.08,43.42L61.68,43.85L61.28,44.28L60.89,44.71L60.45,45.22Z" fill="rgb(248, 155, 128)"></path><path class="path-segment" d="M54.78,36.58L55.22,36.11L55.7,35.61L56.19,35.11L56.7,34.61L63.74,41.72L63.33,42.11L62.92,42.53L62.52,42.95L62.08,43.42Z" fill="rgb(248, 147, 128)"></path><path class="path-segment" d="M56.7,34.61L57.13,34.17L57.68,33.65L58.23,33.14L58.72,32.69L65.44,40.09L64.99,40.52L64.6,40.87L64.21,41.25L63.74,41.72Z" fill="rgb(248, 144, 127)"></path><path class="path-segment" d="M58.72,32.69L59.27,32.21L59.8,31.75L60.33,31.31L60.96,30.8L67.12,38.67L66.75,38.97L66.3,39.35L65.85,39.73L65.44,40.09Z" fill="rgb(248, 140, 127)"></path><path class="path-segment" d="M60.96,30.8L61.51,30.38L62.02,29.99L62.73,29.49L63.36,29.06L68.89,37.4L68.45,37.69L68.1,37.93L67.59,38.32L67.12,38.67Z" fill="rgb(248, 136, 126)"></path><path class="path-segment" d="M63.36,29.06L63.94,28.68L64.59,28.28L65.28,27.89L66.02,27.49L70.62,36.37L70.24,36.57L69.81,36.82L69.38,37.08L68.89,37.4Z" fill="rgb(247, 132, 126)"></path><path class="path-segment" d="M66.02,27.49L66.66,27.17L67.43,26.82L68.12,26.53L69,26.19L72.34,35.61L72.02,35.73L71.53,35.94L71.14,36.11L70.62,36.37Z" fill="rgb(247, 132, 126)"></path><path class="path-segment" d="M69,26.19L69.72,25.95L70.51,25.72L71.27,25.52L72.25,25.31L74.05,35.15L73.77,35.2L73.29,35.32L72.84,35.45L72.34,35.61Z" fill="rgb(247, 125, 125)"></path><path class="path-segment" d="M72.25,25.31L73,25.19L73.88,25.09L74.67,25.03L75.7,25V35L75.45,34.99L74.96,35.03L74.56,35.07L74.05,35.15Z" fill="rgb(247, 121, 125)"></path><path class="path-segment" d="M75.7,25L76.42,25.01L77.21,25.05L78.09,25.12L78.96,25.23L77.56,35.13L77.15,35.08L76.75,35.03L76.26,35.01L75.7,35Z" fill="rgb(241, 125, 129)"></path><path class="path-segment" d="M78.96,25.23L79.67,25.34L80.53,25.51L81.32,25.7L82.2,25.95L79.32,35.52L78.96,35.42L78.51,35.31L78.11,35.22L77.56,35.13Z" fill="rgb(236, 128, 134)"></path><path class="path-segment" d="M82.2,25.95L82.93,26.18L83.69,26.46L84.49,26.78L85.31,27.15L80.99,36.17L80.65,36.02L80.25,35.84L79.81,35.68L79.32,35.52Z" fill="rgb(230, 132, 138)"></path><path class="path-segment" d="M85.31,27.15L85.99,27.49L86.68,27.87L87.35,28.26L88.19,28.8L82.57,37.06L82.33,36.9L81.9,36.65L81.45,36.41L80.99,36.17Z" fill="rgb(225, 136, 143)"></path><path class="path-segment" d="M88.19,28.8L88.8,29.23L89.37,29.64L90.04,30.18L90.72,30.75L84.09,38.24L83.8,37.98L83.47,37.72L83,37.37L82.57,37.06Z" fill="rgb(219, 139, 147)"></path><path class="path-segment" d="M90.72,30.75L91.26,31.24L91.84,31.81L92.36,32.34L92.97,33L85.47,39.63L85.22,39.34L84.84,38.95L84.5,38.62L84.09,38.24Z" fill="rgb(214, 143, 152)"></path><path class="path-segment" d="M92.97,33L93.44,33.55L93.94,34.18L94.4,34.77L94.9,35.45L86.72,41.21L86.46,40.85L86.14,40.42L85.84,40.05L85.47,39.63Z" fill="rgb(214, 143, 152)"></path><path class="path-segment" d="M94.9,35.45L95.31,36.05L95.72,36.68L96.12,37.33L96.55,38.08L87.8,42.92L87.58,42.55L87.32,42.12L87.03,41.67L86.72,41.21Z" fill="rgb(208, 147, 156)"></path><path class="path-segment" d="M96.55,38.08L96.88,38.7L97.23,39.4L97.53,40.01L97.89,40.81L88.71,44.78L88.55,44.41L88.29,43.88L88.06,43.42L87.8,42.92Z" fill="rgb(203, 150, 161)"></path><path class="path-segment" d="M97.89,40.81L98.15,41.44L98.45,42.2L98.72,42.97L98.97,43.72L89.41,46.7L89.26,46.23L89.11,45.78L88.95,45.34L88.71,44.78Z" fill="rgb(197, 154, 165)"></path><path class="path-segment" d="M98.97,43.72L99.17,44.4L99.37,45.19L99.55,45.99L99.72,46.88L89.86,48.52L89.79,48.15L89.69,47.69L89.57,47.24L89.41,46.7Z" fill="rgb(192, 158, 170)"></path><path class="path-segment" d="M99.72,46.88L99.83,47.62L99.92,48.43L99.98,49.3L100,50.37L90,50.13V49.92L89.98,49.51L89.93,49.04L89.86,48.52Z" fill="rgb(181, 165, 179)"></path><path class="path-segment" d="M100,50.37L99.95,51.2L99.88,52L99.76,52.87L99.6,53.77L89.79,51.83L89.86,51.47L89.92,51.06L89.97,50.58L90,50.13Z" fill="rgb(175, 169, 183)"></path><path class="path-segment" d="M99.6,53.77L99.44,54.51L99.24,55.3L99.05,56L98.77,56.88L89.29,53.69L89.41,53.32L89.56,52.8L89.68,52.35L89.79,51.83Z" fill="rgb(170, 173, 188)"></path><path class="path-segment" d="M98.77,56.88L98.54,57.53L98.29,58.2L97.97,59L97.64,59.73L88.56,55.59L88.73,55.16L88.91,54.76L89.1,54.23L89.29,53.69Z" fill="rgb(164, 176, 192)"></path><path class="path-segment" d="M97.64,59.73L97.32,60.41L97.04,60.99L96.6,61.8L96.25,62.44L87.59,57.45L87.86,56.96L88.04,56.65L88.32,56.07L88.56,55.59Z" fill="rgb(159, 180, 197)"></path><path class="path-segment" d="M96.25,62.44L95.88,63.06L95.44,63.75L95.02,64.37L94.55,65.03L86.47,59.13L86.74,58.75L87.04,58.31L87.3,57.92L87.59,57.45Z" fill="rgb(153, 184, 201)"></path><path class="path-segment" d="M94.55,65.03L94.12,65.6L93.62,66.22L93.14,66.8L92.53,67.48L85.23,60.64L85.48,60.38L85.82,59.98L86.12,59.6L86.47,59.13Z" fill="rgb(148, 187, 206)"></path><path class="path-segment" d="M92.53,67.48L92.04,67.99L91.52,68.52L90.89,69.1L90.23,69.66L83.81,62L84.13,61.72L84.44,61.44L84.82,61.07L85.23,60.64Z" fill="rgb(142, 191, 210)"></path><path class="path-segment" d="M90.23,69.66L89.69,70.11L89,70.63L88.39,71.06L87.62,71.58L82.28,63.13L82.59,62.92L83.02,62.61L83.35,62.37L83.81,62Z" fill="rgb(142, 191, 210)"></path><path class="path-segment" d="M87.62,71.58L86.97,71.97L86.26,72.36L85.54,72.74L84.72,73.12L80.66,63.98L81,63.82L81.42,63.62L81.83,63.39L82.28,63.13Z" fill="rgb(137, 195, 215)"></path><path class="path-segment" d="M84.72,73.12L84.05,73.4L83.22,73.71L82.52,73.96L81.56,74.23L78.98,64.57L79.26,64.5L79.78,64.33L80.15,64.2L80.66,63.98Z" fill="rgb(131, 198, 219)"></path><path class="path-segment" d="M81.56,74.23L80.9,74.4L80.03,74.59L79.25,74.73L78.34,74.84L77.16,64.91L77.53,64.87L78.01,64.79L78.4,64.72L78.98,64.57Z" fill="rgb(126, 202, 224)"></path><path class="path-segment" d="M78.34,74.84L77.67,74.92L76.71,74.97L75.98,75L75,74.98L75.38,65H75.68L76.25,64.99L76.57,64.98L77.16,64.91Z" fill="rgb(115, 209, 233)"></path><path class="path-segment" d="M75,74.98L74.24,74.94L73.44,74.87L72.5,74.73L71.59,74.56L73.71,64.78L74.06,64.85L74.38,64.91L74.86,64.96L75.38,65Z" fill="rgb(109, 213, 237)"></path><path class="path-segment" d="M71.59,74.56L70.85,74.38L70.02,74.14L69.24,73.89L68.41,73.59L71.99,64.25L72.36,64.39L72.8,64.54L73.21,64.66L73.71,64.78Z" fill="rgb(113, 215, 236)"></path><path class="path-segment" d="M68.41,73.59L67.74,73.32L66.91,72.94L66.27,72.63L65.49,72.22L70.27,63.44L70.61,63.63L71.13,63.88L71.46,64.04L71.99,64.25Z" fill="rgb(116, 216, 236)"></path><path class="path-segment" d="M65.49,72.22L64.9,71.89L64.2,71.48L63.51,71.04L62.87,70.6L68.53,62.36L68.95,62.64L69.34,62.9L69.74,63.15L70.27,63.44Z" fill="rgb(120, 218, 235)"></path><path class="path-segment" d="M62.87,70.6L62.31,70.21L61.7,69.77L61.07,69.28L60.52,68.84L66.77,61.04L67.23,61.4L67.6,61.69L68.03,62.01L68.53,62.36Z" fill="rgb(123, 220, 234)"></path><path class="path-segment" d="M60.52,68.84L59.99,68.41L59.41,67.92L58.89,67.46L58.32,66.95L65.08,59.58L65.47,59.94L65.91,60.32L66.31,60.67L66.77,61.04Z" fill="rgb(127, 221, 234)"></path><path class="path-segment" d="M58.32,66.95L57.81,66.48L57.31,66L56.81,65.51L56.3,65L63.41,57.96L63.81,58.37L64.23,58.78L64.65,59.18L65.08,59.58Z" fill="rgb(130, 223, 233)"></path><path class="path-segment" d="M56.3,65L55.87,64.57L55.35,64.02L54.91,63.56L54.41,63.03L61.75,56.23L62.13,56.64L62.57,57.1L62.95,57.49L63.41,57.96Z" fill="rgb(130, 223, 233)"></path><path class="path-segment" d="M54.41,63.03L53.96,62.54L53.5,62.02L53.07,61.54L52.61,61.01L60.13,54.43L60.51,54.86L60.94,55.34L61.34,55.78L61.75,56.23Z" fill="rgb(134, 225, 233)"></path><path class="path-segment" d="M52.61,61.01L52.19,60.53L51.73,60L51.29,59.47L50.88,59L58.52,52.54L58.95,53.05L59.33,53.5L59.71,53.95L60.13,54.43Z" fill="rgb(137, 226, 232)"></path><path class="path-segment" d="M50.88,59L50.46,58.49L50.05,58L49.6,57.46L49.2,56.95L56.94,50.63L57.34,51.12L57.71,51.58L58.12,52.07L58.52,52.54Z" fill="rgb(141, 228, 231)"></path><path class="path-segment" d="M49.2,56.95L48.83,56.51L48.38,55.97L47.95,55.42L47.55,54.92L55.35,48.68L55.75,49.18L56.12,49.63L56.49,50.09L56.94,50.63Z" fill="rgb(145, 230, 231)"></path><path class="path-segment" d="M47.55,54.92L47.15,54.42L46.77,53.97L46.34,53.42L45.94,52.92L53.74,46.68L54.14,47.18L54.51,47.63L54.95,48.18L55.35,48.68Z" fill="rgb(152, 233, 229)"></path><path class="path-segment" d="M45.94,52.92L45.54,52.42L45.14,51.92L44.74,51.42L44.34,50.95L52.12,44.66L52.54,45.18L52.94,45.68L53.34,46.18L53.74,46.68Z" fill="rgb(155, 235, 229)"></path><path class="path-segment" d="M44.34,50.95L43.93,50.42L43.56,49.97L43.15,49.48L42.74,48.97L50.48,42.64L50.89,43.14L51.3,43.65L51.73,44.18L52.12,44.66Z" fill="rgb(159, 237, 228)"></path><path class="path-segment" d="M42.74,48.97L42.34,48.48L41.93,47.99L41.58,47.58L41.14,47.05L48.8,40.63L49.18,41.08L49.67,41.65L50.08,42.16L50.48,42.64Z" fill="rgb(162, 238, 227)"></path><path class="path-segment" d="M41.14,47.05L40.73,46.56L40.38,46.16L39.92,45.63L39.55,45.22L47.03,38.59L47.52,39.13L47.9,39.58L48.39,40.14L48.8,40.63Z" fill="rgb(166, 240, 227)"></path><path class="path-segment" d="M39.55,45.22L39.11,44.71L38.72,44.28L38.32,43.85L37.92,43.42L45.22,36.58L45.7,37.09L46.16,37.6L46.63,38.13L47.03,38.59Z" fill="rgb(170, 242, 226)"></path><path class="path-segment" d="M37.92,43.42L37.48,42.95L37.08,42.53L36.67,42.11L36.26,41.72L43.3,34.61L43.81,35.11L44.3,35.61L44.78,36.11L45.22,36.58Z" fill="rgb(173, 243, 225)"></path><path class="path-segment" d="M36.26,41.72L35.79,41.25L35.4,40.87L35.01,40.52L34.56,40.09L41.28,32.69L41.77,33.14L42.32,33.65L42.87,34.17L43.3,34.61Z" fill="rgb(177, 245, 225)"></path><path class="path-segment" d="M34.56,40.09L34.15,39.73L33.7,39.35L33.25,38.97L32.88,38.67L39.04,30.8L39.67,31.31L40.2,31.75L40.73,32.21L41.28,32.69Z" fill="rgb(177, 245, 225)"></path><path class="path-segment" d="M32.88,38.67L32.41,38.32L31.9,37.93L31.55,37.69L31.12,37.4L36.64,29.06L37.27,29.49L37.98,29.99L38.49,30.38L39.04,30.8Z" fill="rgb(180, 247, 224)"></path><path class="path-segment" d="M31.12,37.4L30.62,37.08L30.19,36.82L29.76,36.57L29.38,36.37L33.98,27.49L34.72,27.89L35.41,28.28L36.06,28.68L36.64,29.06Z" fill="rgb(184, 248, 224)"></path><path class="path-segment" d="M29.38,36.37L28.86,36.11L28.47,35.94L27.98,35.73L27.66,35.61L31.01,26.19L31.88,26.53L32.57,26.82L33.34,27.17L33.98,27.49Z" fill="rgb(187, 250, 223)"></path><path class="path-segment" d="M27.66,35.61L27.16,35.45L26.71,35.32L26.23,35.2L25.95,35.15L27.74,25.31L28.73,25.52L29.49,25.72L30.28,25.95L31.01,26.19Z" fill="rgb(194, 253, 222)"></path><path class="path-segment" d="M25.95,35.15L25.44,35.07L25.04,35.03L24.55,34.99L24.3,35V25L25.33,25.03L26.12,25.09L27,25.19L27.74,25.31Z" fill="rgb(198, 255, 221)"></path></g></g></svg>